Table public.products as P  {
    id bigint pk
}

Table app.users as AU {
    id int
}

Table user as U {
    id bigint [unique, pk, not null,ref: < user_role.user_id  ]
    status int [default: 'end']
    created_at timestamp [default: `now()`]
    updated_at timestamp [default: `now()`]
}

Table user_role {
    id bigint [pk]
    user_id bigint [ref: > U.id, null, default: 'defualt']
}

Table role {
    id bigint unique
    name varchar(255) [unique]
}
